<svg class="icon" viewBox="0 0 1024 1024" version="1.1" xmlns="http://www.w3.org/2000/svg" width="16" height="16"><path d="M534.665794 821.401316c-23.671203 5.961898-48.25962 9.489648-73.694698 9.489648-170.884211 0-309.948117-143.050264-309.948117-318.908603s139.028629-318.908602 309.948117-318.908602c157.020154 0 286.841355 120.895993 306.914252 276.928377 31.643918 1.023048 61.841458 7.76105 89.393186 19.579013-11.42991-213.428877-184.783546-383.536983-396.307438-383.536983-218.896889 0-396.942433 182.102456-396.942433 405.938195S242.074207 917.920557 460.935818 917.920557c44.484928 0 87.205981-7.61994 127.175389-21.483998-22.224825-21.30761-40.392738-46.742688-53.445413-75.035243z m-73.729976-581.479037c-24.023978 0-43.497158 19.47318-43.497157 43.497158v228.562924c0 3.563028 0.56444 6.984945 1.340545 10.265753 3.95108 19.931788 21.554553 34.99528 42.650497 34.99528h109.219141c35.065835-41.309953 83.360733-71.048886 138.393634-82.443518-5.78551-2.8222-12.170738-4.550798-19.04985-4.550798H504.468254V283.454715c0-24.059255-19.47318-43.532435-43.532436-43.532436z m298.729873 277.351707c-110.630241 0-200.305646 89.675406-200.305647 200.305647s89.675406 200.305646 200.305647 200.305646c110.630241 0 200.305646-89.675406 200.305646-200.305646s-89.675406-200.305646-200.305646-200.305647z m-156.138217 132.361181h212.229442l-50.411548-54.997623 35.171668-32.208357 123.682916 134.901161h-320.6372v-47.695181z m312.276433 135.924209h-212.229442l50.411548 54.997623-35.13639 32.208357-123.682916-134.901161H915.803907v47.695181z" fill="#515151"></path></svg>