<svg class="icon" viewBox="0 0 1024 1024" version="1.1" xmlns="http://www.w3.org/2000/svg" width="16" height="16">
    <path d="M512 899.9c-213.88 0-387.9-174.02-387.9-387.91S298.11 124.1 512 124.1 899.9 298.11 899.9 512 725.89 899.9 512 899.9z m0-713.64c-179.61 0-325.73 146.12-325.73 325.73S332.39 837.74 512 837.74c179.62 0 325.74-146.13 325.74-325.75S691.61 186.26 512 186.26z"
          fill="#515151"></path>
    <path d="M477.17 538.99V320.47c0-17.17 13.92-31.08 31.08-31.08 17.17 0 31.08 13.92 31.08 31.08v194.95c0 5.93 6.44 9.62 11.55 6.62l97-56.86c14.81-8.68 33.86-3.71 42.54 11.1 8.68 14.81 3.71 33.85-11.1 42.53l-117.33 68.77c-37.55 22.02-84.82-5.06-84.82-48.59z"
          fill="#515151"></path>
</svg>